{"title":"Roman J. Israel, Esq. 2017 WEB-DL.XviD.MP3-VVEXO","magnet":"magnet:?xt=urn:btih:aed2ff545292caf151719fc90a956676e4542271&dn=Roman+J.+Israel%2C+Esq.+2017+WEB-DL.XviD.MP3-VVEXO&tr=udp%3A%2F%2Ftracker.leechers-paradise.org%3A6969&tr=udp%3A%2F%2Fzer0day.ch%3A1337&tr=udp%3A%2F%2Fopen.demonii.com%3A1337&tr=udp%3A%2F%2Ftracker.coppersurfer.tk%3A6969&tr=udp%3A%2F%2Fexodus.desync.com%3A6969","uploader":"vvesko","categoryP":"video","categoryS":"movies","size":"1227707866","seeders":"25","leechers":"10","description":"General\r\nComplete name               : Roman.J.Israel.Esq.2017.WEB-DL.XviD-VVEXO.avi\r\nFormat                      : AVI\r\nFormat/Info                 : Audio Video Interleave\r\nFile size                   : 1.14 GiB\r\nDuration                    : 2 h 2 min\r\nOverall bit rate            : 1 338 kb/s\r\nWriting application         : MEncoder SVN-r22963\r\nWriting library             : MPlayer\r\n\r\nVideo\r\nID                          : 0\r\nFormat                      : MPEG-4 Visual\r\nFormat profile              : <a href=\"/cdn-cgi/l/email-protection\" class=\"__cf_email__\" data-cfemail=\"580b313528343d181469\">[email&#xA0;protected]</a>\r\nFormat settings, BVOP       : No\r\nFormat settings, QPel       : No\r\nFormat settings, GMC        : No warppoints\r\nFormat settings, Matrix     : Default (H.263)\r\nCodec ID                    : XVID\r\nCodec ID/Hint               : XviD\r\nDuration                    : 2 h 2 min\r\nBit rate                    : 1 198 kb/s\r\nWidth                       : 720 pixels\r\nHeight                      : 384 pixels\r\nDisplay aspect ratio        : 1.85:1\r\nFrame rate                  : 23.976 (24000/1001) FPS\r\nColor space                 : YUV\r\nChroma subsampling          : 4:2:0\r\nBit depth                   : 8 bits\r\nScan type                   : Progressive\r\nCompression mode            : Lossy\r\nBits/(Pixel*Frame)          : 0.181\r\nStream size                 : 1.02 GiB (90%)\r\nWriting library             : Lavc51.40.2\r\n\r\nAudio\r\nID                          : 1\r\nFormat                      : MPEG Audio\r\nFormat version              : Version 1\r\nFormat profile              : Layer 3\r\nCodec ID                    : 55\r\nCodec ID/Hint               : MP3\r\nDuration                    : 2 h 2 min\r\nBit rate mode               : Constant\r\nBit rate                    : 128 kb/s\r\nChannel(s)                  : 2 channels\r\nSampling rate               : 44.1 kHz\r\nCompression mode            : Lossy\r\nStream size                 : 112 MiB (10%)\r\nAlignment                   : Aligned on interleaves\r\nInterleave, duration        : 26  ms (0.63 video frame)\r\nInterleave, preload duratio : 522  ms\r\nWriting library             : LAME3.97","last_updated":"2018-01-28T12:09:33.034Z","parsed":{"xt":"urn:btih:aed2ff545292caf151719fc90a956676e4542271","dn":"Roman J. Israel, Esq. 2017 WEB-DL.XviD.MP3-VVEXO","tr":["udp://exodus.desync.com:6969","udp://open.demonii.com:1337","udp://tracker.coppersurfer.tk:6969","udp://tracker.leechers-paradise.org:6969","udp://zer0day.ch:1337"],"infoHash":"aed2ff545292caf151719fc90a956676e4542271","infoHashBuffer":{"type":"Buffer","data":[174,210,255,84,82,146,202,241,81,113,159,201,10,149,102,118,228,84,34,113]},"name":"Roman J. Israel, Esq. 2017 WEB-DL.XviD.MP3-VVEXO","announce":["udp://exodus.desync.com:6969","udp://open.demonii.com:1337","udp://tracker.coppersurfer.tk:6969","udp://tracker.leechers-paradise.org:6969","udp://zer0day.ch:1337"],"urlList":[]}}